<svg xmlns="http://www.w3.org/2000/svg" viewBox="0 0 520 96" width="520" height="96" fill="none">
  <g transform="translate(0 -8) scale(0.44)">
    <g stroke="#E6EDF3" stroke-width="12" stroke-linecap="round" stroke-linejoin="round">
      <ellipse cx="116" cy="96" rx="54" ry="20"/>
      <path d="M62 96v30c0 11 24 20 54 20s54-9 54-20V96"/>
      <path d="M62 126c0 11 24 20 54 20s54-9 54-20"/>
      <path d="M62 126v30c0 11 24 20 54 20s54-9 54-20v-30"/>
      <path d="M62 156c0 11 24 20 54 20s54-9 54-20"/>
    </g>
    <path d="M184 48C184 62 192 70 206 70C192 70 184 78 184 92C184 78 176 70 162 70C176 70 184 62 184 48Z" fill="#22C55E"/>
  </g>
  <text x="104" y="62" fill="#E6EDF3" font-family="ui-sans-serif, system-ui, -apple-system, 'Segoe UI', Helvetica, Arial, sans-serif" font-size="40" font-weight="600">Db2 for i MCP Server</text>
</svg>
